<?xml version="1.0" encoding="UTF-8"?>
<svg xmlns="http://www.w3.org/2000/svg" viewBox="527 301 218 232">
  <rect fill="#0f172a" x="532.35" y="306.58" width="207.51" height="221.6" rx="50.97" ry="50.97"/>
  <path fill="#fff" d="M672.74,471.4c-.12.46-.43.2-.7.04-4.85-3.09-34.46-22-38.93-24.81-4.25,1.47-36.23,22.18-40.04,24.13-.43.24-.47.19-.49-.37-.06-1.21-.21-4.66-.43-9.35-.63-16.76-2.13-40.97-2.46-57.29.34-29.38,21.26-54.82,49.7-61.4,3.5-.91,8.89-2.52,11.63-3.17.99-.19,1.05.19.89,1.6-.09.74-.22,1.76-.37,2.91-.37,2.95-.8,6.08-1.15,9.03-.15,1.4.08,1.84,1.3,2.88,1.22,1.04,2.49,2.08,3.75,3.14,1.87,1.61,3.99,3.21,5.56,4.74,3.19,3.42,16.69,18.09,23.9,25.87,1.64,1.78,2.9,3.13,3.52,3.82.21.23.38.45.47.74.26,1.2.12,2.32.16,3.75-.01,1.98.02,4.11-.02,6.09-.03,1.6-.34,2.19-1.51,3.5-1.06,1.19-2.19,2.43-3.27,3.64-.99,1.07-2.13,2.5-3.1,3.24-.86.7-2.45.59-3.73.53-2.47-.21-5.16.21-6.98-1.78-1.29-1.21-2.66-2.63-3.95-3.87-1.04-1.03-1.82-1.49-3.25-1.43-4.01-.02-11.08,0-14.25,0-.8-.01-1.56-.1-2.29-.41-3.33-1.78-6.17-4.61-8.72-7.38-.46-.43-.95-1.24-1.49-1.33-.08.04-.04.06-.06.11,0,.66.33,1.3.59,2.05,4.55,11.82,12.68,22.44,21.68,31.35,7.99,6.95,13.43,16.29,14.2,27.09.25,3.88.13,8.56-.14,12.34v.03Z"/>
  <polygon fill="#d5a129" points="632.32 465.82 583.15 495.44 583.15 475.51 632.32 445.9 632.32 465.82"/>
  <polygon fill="#d5a129" points="632.32 465.82 681.5 495.44 681.5 475.51 632.32 445.9 632.32 465.82"/>
  <polygon fill="#d5a129" points="632.34 487.91 645.05 495.61 666.9 495.61 632.34 474.68 597.77 495.61 619.62 495.61 632.34 487.91"/>
</svg>
